<?xml version="1.0" encoding="utf-8"?>
<!-- Generator: Adobe Illustrator 24.3.0, SVG Export Plug-In . SVG Version: 6.00 Build 0)  -->
<svg version="1.1" id="Calque_1" xmlns="http://www.w3.org/2000/svg" xmlns:xlink="http://www.w3.org/1999/xlink" x="0px" y="0px"
	 viewBox="0 0 144 144" style="enable-background:new 0 0 144 144;" xml:space="preserve">
<style type="text/css">
	.st0{fill:#6E872A;}
	.st1{fill:#5A7028;}
	.st2{fill:#93AD24;}
</style>
<g id="logo">
	<g>
		<g id="down-group">
			<g>
				<path class="st0" d="M77,94.1c-1.3,2.6-2.2,5.4-2.9,8.4c-0.2,1-0.4,2-0.5,3c-1.3-0.1-2.5,0-3.8,0.1c-0.1-1.2-0.3-2.4-0.5-3.6
					c-0.6-2.7-1.4-5.3-2.5-7.7c1.8-0.3,3.7-0.5,5.6-0.5C74,93.7,75.5,93.8,77,94.1z"/>
				<path class="st0" d="M49.6,103.3c-5.7,5.8-9.2,13.7-9.2,22.4c2.8-6,7.3-11.2,12.9-14.8C52.4,108.2,51.1,105.6,49.6,103.3z
					 M66,110.1c-2.8,0.6-5.5,1.5-7.9,2.7c0.1,0.2,0.1,0.4,0.1,0.7c1.2,6.1,0.8,12.1-0.9,17.7C62.5,125.6,65.8,118.2,66,110.1z"/>
				<g>
					<path class="st1" d="M80.5,135.9c0,4.5-3.6,8.1-8.1,8.1c-4.5,0-8.1-3.6-8.1-8.1c0-4.5,3.6-8.1,8.1-8.1
						C76.9,127.7,80.5,131.4,80.5,135.9z"/>
				</g>
				<path class="st0" d="M87.9,133.5c-6.5-5.9-10.4-14.4-10.4-23.6c3.1,0.5,6.1,1.4,8.9,2.8c-0.1,0.3-0.1,0.6-0.2,0.8
					C84.8,120.5,85.5,127.4,87.9,133.5z"/>
				<path class="st0" d="M104.4,125.8c0,0.3,0,0.5,0,0.8c-2.8-6.5-7.5-11.9-13.3-15.6c0.9-2.8,2.2-5.5,3.9-7.9
					C100.8,108.8,104.4,116.9,104.4,125.8z"/>
				<path class="st0" d="M87.9,133.5c-6.5-5.9-10.4-14.4-10.4-23.6c3.1,0.5,6.1,1.4,8.9,2.8c-0.1,0.3-0.1,0.6-0.2,0.8
					C84.8,120.5,85.5,127.4,87.9,133.5z"/>
				<path class="st0" d="M57.3,131.2c1.8-5.5,2.2-11.6,0.9-17.7c0-0.2-0.1-0.4-0.1-0.7c2.5-1.2,5.1-2.2,7.9-2.7
					C65.8,118.2,62.5,125.6,57.3,131.2z"/>
			</g>
		</g>
		<path class="st0" d="M86.2,113.5c0.1-0.3,0.1-0.6,0.2-0.8c-2.8-1.3-5.7-2.3-8.9-2.8c0,9.2,4,17.7,10.4,23.6
			C85.5,127.4,84.8,120.5,86.2,113.5z M94.9,103c-1.6,2.4-2.9,5.1-3.9,7.9c5.8,3.7,10.5,9.2,13.3,15.6c0-0.3,0-0.5,0-0.8
			C104.4,116.9,100.8,108.8,94.9,103z"/>
		<g id="down-group_4_">
			<path class="st0" d="M104.4,141.4c-1.2-0.2-2.5-0.5-3.7-0.8c-2.2-0.6-4.2-1.4-6.2-2.5c-3.9-6.1-5.8-13.5-4.8-21.2
				c0.1-0.7,0.2-1.4,0.3-2.1c6.5,4.3,11.4,11,13.3,18.8v0C104.1,136.1,104.4,138.7,104.4,141.4z"/>
			<path class="st0" d="M132.6,87.6c-1.6-0.6-3.3-1.1-5-1.4c-14.1-2.9-27.9,3.1-35.7,14.2c-1.8,2.6-3.3,5.5-4.4,8.6
				c-3-1.5-6.3-2.5-9.7-3.1c0.5-3.9,1.7-7.6,3.4-10.9c6-11.5,18.7-18.6,32.3-16.9C121,79,127.7,82.5,132.6,87.6z"/>
		</g>
		<path class="st0" d="M49.6,103.3c-5.7,5.8-9.2,13.7-9.2,22.4c2.8-6,7.3-11.2,12.9-14.8C52.4,108.2,51.1,105.6,49.6,103.3z
			 M66,110.1c-2.8,0.6-5.5,1.5-7.9,2.7c0.1,0.2,0.1,0.4,0.1,0.7c1.2,6.1,0.8,12.1-0.9,17.7C62.5,125.6,65.8,118.2,66,110.1z"/>
		<g id="down-group_5_">
			<path class="st0" d="M65.8,106c-3.1,0.6-6.1,1.6-8.9,2.9c-1.1-3-2.5-5.8-4.3-8.4C44.9,89.4,31,83.3,16.8,86.2
				c-2.5,0.5-4.9,1.3-7.2,2.3c5-5.9,12.2-10,20.4-11c14-1.7,26.9,5.8,32.8,17.8c1.5,3.1,2.5,6.5,3,10.1
				C65.8,105.5,65.8,105.8,65.8,106z"/>
			<path class="st0" d="M50.8,136.5L50.8,136.5c-2.2,1.4-4.7,2.5-7.2,3.3c-1,0.3-2.1,0.6-3.2,0.8c0.1-2.4,0.4-4.7,1-7v0
				c1.9-7.7,6.6-14.2,13-18.6c0.1,0.6,0.2,1.2,0.3,1.9C55.5,124,54,130.7,50.8,136.5z"/>
		</g>
	</g>
	<g>
		<g id="down-group_19_">
			<g>
				<path class="st0" d="M77,50.4c-1.3-2.6-2.2-5.4-2.9-8.4c-0.2-1-0.4-2-0.5-3c-1.3,0.1-2.5,0-3.8-0.1c-0.1,1.2-0.3,2.4-0.5,3.6
					c-0.6,2.7-1.4,5.3-2.5,7.7c1.8,0.3,3.7,0.5,5.6,0.5C74,50.8,75.5,50.6,77,50.4z"/>
				<path class="st0" d="M53.3,33.6c-5.6-3.6-10.1-8.7-12.9-14.8c0,8.7,3.5,16.7,9.2,22.4C51.1,38.9,52.4,36.3,53.3,33.6z
					 M57.3,13.3c1.8,5.5,2.2,11.6,0.9,17.7c0,0.2-0.1,0.4-0.1,0.7c2.5,1.2,5.1,2.2,7.9,2.7C65.8,26.3,62.5,18.9,57.3,13.3z"/>
				<g>
					<path class="st1" d="M80.5,8.6c0-4.5-3.6-8.1-8.1-8.1c-4.5,0-8.1,3.6-8.1,8.1c0,4.5,3.6,8.1,8.1,8.1
						C76.9,16.8,80.5,13.1,80.5,8.6z"/>
				</g>
				<path class="st0" d="M87.9,11c-6.5,5.9-10.4,14.4-10.4,23.6c3.1-0.5,6.1-1.4,8.9-2.8c-0.1-0.3-0.1-0.6-0.2-0.8
					C84.8,24,85.5,17.1,87.9,11z"/>
				<path class="st0" d="M104.4,18.7c0-0.3,0-0.5,0-0.8c-2.8,6.5-7.5,11.9-13.3,15.6c0.9,2.8,2.2,5.5,3.9,7.9
					C100.8,35.7,104.4,27.6,104.4,18.7z"/>
				<path class="st0" d="M87.9,11c-6.5,5.9-10.4,14.4-10.4,23.6c3.1-0.5,6.1-1.4,8.9-2.8c-0.1-0.3-0.1-0.6-0.2-0.8
					C84.8,24,85.5,17.1,87.9,11z"/>
				<path class="st0" d="M57.3,13.3c1.8,5.5,2.2,11.6,0.9,17.7c0,0.2-0.1,0.4-0.1,0.7c2.5,1.2,5.1,2.2,7.9,2.7
					C65.8,26.3,62.5,18.9,57.3,13.3z"/>
			</g>
		</g>
		<path class="st0" d="M87.9,11c-6.5,5.9-10.4,14.4-10.4,23.6c3.1-0.5,6.1-1.4,8.9-2.8c-0.1-0.3-0.1-0.6-0.2-0.8
			C84.8,24,85.5,17.1,87.9,11z M104.4,18.7c0-0.3,0-0.5,0-0.8c-2.8,6.5-7.5,11.9-13.3,15.6c0.9,2.8,2.2,5.5,3.9,7.9
			C100.8,35.7,104.4,27.6,104.4,18.7z"/>
		<g id="down-group_15_">
			<path class="st0" d="M104.4,3.1c-1.2,0.2-2.5,0.5-3.7,0.8c-2.2,0.6-4.2,1.4-6.2,2.5c-3.9,6.1-5.8,13.5-4.8,21.2
				c0.1,0.7,0.2,1.4,0.3,2.1c6.5-4.3,11.4-11,13.3-18.8v0C104.1,8.4,104.4,5.8,104.4,3.1z"/>
			<path class="st0" d="M132.6,56.9c-1.6,0.6-3.3,1.1-5,1.4c-14.1,2.9-27.9-3.1-35.7-14.2c-1.8-2.6-3.3-5.5-4.4-8.6
				c-3,1.5-6.3,2.5-9.7,3.1c0.5,3.9,1.7,7.6,3.4,10.9c6,11.5,18.7,18.6,32.3,16.9C121,65.5,127.7,62,132.6,56.9z"/>
		</g>
		<path class="st0" d="M53.3,33.6c-5.6-3.6-10.1-8.7-12.9-14.8c0,8.7,3.5,16.7,9.2,22.4C51.1,38.9,52.4,36.3,53.3,33.6z M57.3,13.3
			c1.8,5.5,2.2,11.6,0.9,17.7c0,0.2-0.1,0.4-0.1,0.7c2.5,1.2,5.1,2.2,7.9,2.7C65.8,26.3,62.5,18.9,57.3,13.3z"/>
		<g id="down-group_7_">
			<path class="st0" d="M65.8,38.5c-3.1-0.6-6.1-1.6-8.9-2.9c-1.1,3-2.5,5.8-4.3,8.4C44.9,55.1,31,61.2,16.8,58.3
				c-2.5-0.5-4.9-1.3-7.2-2.3c5,5.9,12.2,10,20.4,11c14,1.7,26.9-5.8,32.8-17.8c1.5-3.1,2.5-6.5,3-10.1C65.8,39,65.8,38.7,65.8,38.5
				z"/>
			<path class="st0" d="M50.8,8L50.8,8c-2.2-1.4-4.7-2.5-7.2-3.3c-1-0.3-2.1-0.6-3.2-0.8c0.1,2.4,0.4,4.7,1,7v0
				c1.9,7.7,6.6,14.2,13,18.6c0.1-0.6,0.2-1.2,0.3-1.9C55.5,20.5,54,13.8,50.8,8z"/>
		</g>
	</g>
	<g>
		<g id="down-group_12_">
			<g>
				<g>
					<path class="st0" d="M8,80.5c-4.5-0.1-8.1-3.7-8-8.2c0.1-4.5,3.7-8.1,8.2-8c4.5,0.1,8.1,3.7,8,8.2C16.2,76.9,12.5,80.5,8,80.5z
						"/>
				</g>
				<path class="st0" d="M49.9,77.5c-2.6-1.3-5.4-2.3-8.4-3c-1-0.2-2-0.4-3-0.5c0.1-1.3,0.1-2.5,0-3.8c1.2-0.1,2.4-0.3,3.6-0.5
					c2.7-0.5,5.3-1.3,7.7-2.4c0.3,1.8,0.4,3.7,0.4,5.6C50.2,74.4,50.1,76,49.9,77.5z"/>
				<path class="st0" d="M41,49.9c-5.7-5.8-13.6-9.4-22.3-9.5c6,2.9,11.1,7.4,14.6,13.1C36.1,52.7,38.6,51.5,41,49.9z"/>
				<g>
					<path class="st1" d="M8,80.5c-4.5-0.1-8.1-3.7-8-8.2c0.1-4.5,3.7-8.1,8.2-8c4.5,0.1,8.1,3.7,8,8.2C16.2,76.9,12.5,80.5,8,80.5z
						"/>
				</g>
				<path class="st0" d="M17.9,104.5c-0.3,0-0.5,0-0.8,0c6.5-2.7,12-7.3,15.8-13.1c2.8,1,5.5,2.3,7.9,3.9
					C34.8,101.1,26.7,104.6,17.9,104.5z"/>
			</g>
		</g>
		<path class="st0" d="M40.7,95.3c-2.4-1.7-5-3-7.9-3.9c-3.8,5.8-9.3,10.4-15.8,13.1c0.3,0,0.5,0,0.8,0
			C26.7,104.6,34.8,101.1,40.7,95.3z"/>
		<g id="down-group_8_">
			<path class="st0" d="M2.2,104.3c0.2-1.2,0.5-2.5,0.9-3.6c0.6-2.2,1.5-4.2,2.6-6.2c6.1-3.8,13.6-5.6,21.3-4.6
				c0.7,0.1,1.4,0.2,2.1,0.4c-4.4,6.5-11.1,11.2-19,13.1l0,0C7.5,104,4.9,104.3,2.2,104.3z"/>
		</g>
		<path class="st0" d="M41,49.9c-5.7-5.8-13.6-9.4-22.3-9.5c6,2.9,11.1,7.4,14.6,13.1C36.1,52.7,38.6,51.5,41,49.9z"/>
		<g id="down-group_6_">
			<path class="st0" d="M7.8,50.8L7.8,50.8c-1.4-2.3-2.4-4.7-3.2-7.3c-0.3-1-0.6-2.1-0.8-3.2c2.4,0.1,4.7,0.5,6.9,1.1l0,0
				c7.6,2,14.1,6.8,18.4,13.2c-0.6,0.1-1.2,0.2-1.9,0.3C20.2,55.6,13.5,54,7.8,50.8z"/>
		</g>
	</g>
	<g>
		<g id="down-group_26_">
			<g>
				<path class="st0" d="M94,77.5c2.6-1.3,5.4-2.3,8.4-3c1-0.2,2-0.4,3-0.5c-0.1-1.3-0.1-2.5,0-3.8c-1.2-0.1-2.4-0.3-3.6-0.5
					c-2.7-0.5-5.3-1.3-7.7-2.4c-0.3,1.8-0.4,3.7-0.4,5.6C93.6,74.4,93.7,76,94,77.5z"/>
				<path class="st0" d="M110.5,53.5c3.5-5.7,8.6-10.2,14.6-13.1c-8.7,0.1-16.6,3.7-22.3,9.5C105.2,51.5,107.8,52.7,110.5,53.5z"/>
				<g>
					<path class="st1" d="M135.8,80.5c4.5-0.1,8.1-3.7,8-8.2c-0.1-4.5-3.7-8.1-8.2-8c-4.5,0.1-8.1,3.7-8,8.2
						C127.6,76.9,131.3,80.5,135.8,80.5z"/>
				</g>
				<path class="st0" d="M126,104.5c0.3,0,0.5,0,0.8,0c-6.5-2.7-12-7.3-15.8-13.1c-2.8,1-5.5,2.3-7.9,3.9
					C109,101.1,117.1,104.6,126,104.5z"/>
			</g>
		</g>
		<path class="st0" d="M126,104.5c0.3,0,0.5,0,0.8,0c-6.5-2.7-12-7.3-15.8-13.1c-2.8,1-5.5,2.3-7.9,3.9
			C109,101.1,117.1,104.6,126,104.5z"/>
		<g id="down-group_22_">
			<path class="st0" d="M141.6,104.3c-0.2-1.2-0.5-2.5-0.9-3.6c-0.6-2.2-1.5-4.2-2.6-6.2c-6.1-3.8-13.6-5.6-21.3-4.6
				c-0.7,0.1-1.4,0.2-2.1,0.4c4.4,6.5,11.1,11.2,19,13.1l0,0C136.4,104,139,104.3,141.6,104.3z"/>
		</g>
		<path class="st0" d="M110.5,53.5c3.5-5.7,8.6-10.2,14.6-13.1c-8.7,0.1-16.6,3.7-22.3,9.5C105.2,51.5,107.8,52.7,110.5,53.5z"/>
		<g id="down-group_13_">
			<path class="st0" d="M136,50.8L136,50.8c1.4-2.3,2.4-4.7,3.2-7.3c0.3-1,0.6-2.1,0.8-3.2c-2.4,0.1-4.7,0.5-6.9,1.1l0,0
				c-7.6,2-14.1,6.8-18.4,13.2c0.6,0.1,1.2,0.2,1.9,0.3C123.6,55.6,130.3,54,136,50.8z"/>
		</g>
	</g>
	<path class="st1" d="M117.1,35.6c4.5-0.1,8.1-3.7,8-8.2c-0.1-4.5-3.7-8.1-8.2-8c-4.5,0.1-8.1,3.7-8,8.2
		C108.9,32.1,112.6,35.7,117.1,35.6z"/>
	<path class="st1" d="M26.9,35.6c4.5-0.1,8.1-3.7,8-8.2c-0.1-4.5-3.7-8.1-8.2-8c-4.5,0.1-8.1,3.7-8,8.2
		C18.7,32.1,22.4,35.7,26.9,35.6z"/>
	<path class="st1" d="M26.9,125.2c4.5-0.1,8.1-3.7,8-8.2c-0.1-4.5-3.7-8.1-8.2-8c-4.5,0.1-8.1,3.7-8,8.2
		C18.7,121.6,22.4,125.2,26.9,125.2z"/>
	<path class="st1" d="M117.1,125.2c4.5-0.1,8.1-3.7,8-8.2c-0.1-4.5-3.7-8.1-8.2-8c-4.5,0.1-8.1,3.7-8,8.2
		C108.9,121.6,112.6,125.2,117.1,125.2z"/>
	<polygon class="st2" points="89,65 89.2,79.4 79.1,89.8 64.6,90 54.3,79.9 54.1,65.4 64.2,55.1 78.6,54.9 	"/>
</g>
</svg>
