<svg id="ae1aae8e-cb10-4cf2-8bd9-4b45372964dc" data-name="Calque 1" xmlns="http://www.w3.org/2000/svg" viewBox="0 0 144 171.02"><g id="f4504731-18e1-4f6d-86dc-b2883c73e848" data-name="logo"><g id="bc0cff71-7532-4c14-8166-9254f9ffca46" data-name="down-group"><path d="M77.11,93.68a35.2,35.2,0,0,0-2.86,8.43c-.2,1-.35,2-.47,3a30.33,30.33,0,0,0-3.81,0,34.39,34.39,0,0,0-.55-3.62,34.9,34.9,0,0,0-2.51-7.68,32.6,32.6,0,0,1,10.2-.15Z" style="fill:#6e872a"/><path d="M49.67,102.89a31.92,31.92,0,0,0-9.25,22.47,35.27,35.27,0,0,1,12.93-14.79A31.81,31.81,0,0,0,49.67,102.89Zm16.4,6.88a31.61,31.61,0,0,0-7.94,2.74l.15.67a35.05,35.05,0,0,1-.94,17.67A32,32,0,0,0,66.07,109.77Z" style="fill:#6e872a"/><path d="M80.62,135.53a8.14,8.14,0,1,1-8.14-8.13A8.13,8.13,0,0,1,80.62,135.53Z" style="fill:#5a7028"/><path d="M88,133.13a32.11,32.11,0,0,1-10.44-23.59,31.43,31.43,0,0,1,8.87,2.79l-.18.85A35.11,35.11,0,0,0,88,133.13Z" style="fill:#6e872a"/><path d="M104.54,125.41v.81A35.18,35.18,0,0,0,91.2,110.57a31.63,31.63,0,0,1,3.86-7.92A31.94,31.94,0,0,1,104.54,125.41Z" style="fill:#6e872a"/><path d="M88,133.13a32.11,32.11,0,0,1-10.44-23.59,31.43,31.43,0,0,1,8.87,2.79l-.18.85A35.11,35.11,0,0,0,88,133.13Z" style="fill:#6e872a"/><path d="M57.34,130.85a35.05,35.05,0,0,0,.94-17.67l-.15-.67a31.61,31.61,0,0,1,7.94-2.74A32,32,0,0,1,57.34,130.85Z" style="fill:#6e872a"/></g><path d="M86.28,113.18l.18-.85a31.43,31.43,0,0,0-8.87-2.79A32.11,32.11,0,0,0,88,133.13,35.11,35.11,0,0,1,86.28,113.18Zm8.78-10.53a31.63,31.63,0,0,0-3.86,7.92,35.18,35.18,0,0,1,13.34,15.65v-.81A31.94,31.94,0,0,0,95.06,102.65Z" style="fill:#6e872a"/><g id="a8a6eead-a0af-4d40-95f5-ad55371bffa5" data-name="down-group"><path d="M104.54,141.1a31.32,31.32,0,0,1-3.66-.81,32.23,32.23,0,0,1-6.2-2.48,32,32,0,0,1-4.81-21.23c.08-.71.2-1.41.33-2.11a32,32,0,0,1,13.36,18.83h0A31.26,31.26,0,0,1,104.54,141.1Z" style="fill:#6e872a"/><path d="M132.72,87.17a35.13,35.13,0,0,0-45.16,21.37,34.66,34.66,0,0,0-9.72-3.06,32.07,32.07,0,0,1,54.88-18.31Z" style="fill:#6e872a"/></g><path d="M49.67,102.89a31.92,31.92,0,0,0-9.25,22.47,35.27,35.27,0,0,1,12.93-14.79A31.81,31.81,0,0,0,49.67,102.89Zm16.4,6.88a31.61,31.61,0,0,0-7.94,2.74l.15.67a35.05,35.05,0,0,1-.94,17.67A32,32,0,0,0,66.07,109.77Z" style="fill:#6e872a"/><g id="e0ccee25-dc4b-4c1d-9a7a-80121854b0cc" data-name="down-group"><path d="M65.92,105.62A35.07,35.07,0,0,0,57,108.53,35.24,35.24,0,0,0,9.6,88.06a32.08,32.08,0,0,1,53.26,6.76,32.33,32.33,0,0,1,3,10.09C65.87,105.15,65.9,105.38,65.92,105.62Z" style="fill:#6e872a"/><path d="M50.88,136.13h0a31.89,31.89,0,0,1-7.23,3.32c-1,.32-2.12.6-3.21.82a31.91,31.91,0,0,1,1-7h0a32,32,0,0,1,13-18.59c.11.62.2,1.24.28,1.87A31.89,31.89,0,0,1,50.88,136.13Z" style="fill:#6e872a"/></g><g id="e0203796-0638-480a-9e9a-388a71436dc6" data-name="down-group"><path d="M77.11,50a35.2,35.2,0,0,1-2.86-8.43c-.2-1-.35-2-.47-3A32.35,32.35,0,0,1,70,38.55a35.2,35.2,0,0,1-.55,3.62,34.82,34.82,0,0,1-2.51,7.67,31.81,31.81,0,0,0,10.2.15Z" style="fill:#6e872a"/><path d="M53.35,33.1A35.18,35.18,0,0,1,40.42,18.32a31.9,31.9,0,0,0,9.25,22.46A31.81,31.81,0,0,0,53.35,33.1Zm4-20.27a35,35,0,0,1,.94,17.67l-.15.67a31.59,31.59,0,0,0,7.94,2.73A32,32,0,0,0,57.34,12.83Z" style="fill:#6e872a"/><path d="M80.62,8.14a8.14,8.14,0,1,0-8.14,8.14A8.13,8.13,0,0,0,80.62,8.14Z" style="fill:#5a7028"/><path d="M88,10.54a32.14,32.14,0,0,0-10.44,23.6,31.76,31.76,0,0,0,8.87-2.79l-.18-.85A35.15,35.15,0,0,1,88,10.54Z" style="fill:#6e872a"/><path d="M104.54,18.26v-.8A35.21,35.21,0,0,1,91.2,33.1,31.7,31.7,0,0,0,95.06,41,32,32,0,0,0,104.54,18.26Z" style="fill:#6e872a"/><path d="M88,10.54a32.14,32.14,0,0,0-10.44,23.6,31.76,31.76,0,0,0,8.87-2.79l-.18-.85A35.15,35.15,0,0,1,88,10.54Z" style="fill:#6e872a"/><path d="M57.34,12.83a35,35,0,0,1,.94,17.67l-.15.67a31.59,31.59,0,0,0,7.94,2.73A32,32,0,0,0,57.34,12.83Z" style="fill:#6e872a"/></g><path d="M88,10.54a32.14,32.14,0,0,0-10.44,23.6,31.76,31.76,0,0,0,8.87-2.79l-.18-.85A35.15,35.15,0,0,1,88,10.54Zm16.51,7.72v-.8A35.21,35.21,0,0,1,91.2,33.1,31.7,31.7,0,0,0,95.06,41,32,32,0,0,0,104.54,18.26Z" style="fill:#6e872a"/><g id="f5628683-1f0c-4139-aafb-80a32ab0d9da" data-name="down-group"><path d="M104.54,2.57a31.82,31.82,0,0,0-9.86,3.3,31.92,31.92,0,0,0-4.81,21.22c.08.72.2,1.42.33,2.12a32,32,0,0,0,13.36-18.83h0A31.39,31.39,0,0,0,104.54,2.57Z" style="fill:#6e872a"/><path d="M132.72,56.5A35.15,35.15,0,0,1,87.56,35.14a35,35,0,0,1-9.72,3.06,32.07,32.07,0,0,0,54.88,18.3Z" style="fill:#6e872a"/></g><path d="M53.35,33.1A35.18,35.18,0,0,1,40.42,18.32a31.9,31.9,0,0,0,9.25,22.46A31.81,31.81,0,0,0,53.35,33.1Zm4-20.27a35,35,0,0,1,.94,17.67l-.15.67a31.59,31.59,0,0,0,7.94,2.73A32,32,0,0,0,57.34,12.83Z" style="fill:#6e872a"/><g id="e6df9430-e721-4293-af8f-8970dfc5c524" data-name="down-group"><path d="M65.92,38.05A34.3,34.3,0,0,1,57,35.14,35.11,35.11,0,0,1,16.83,57.91a35.06,35.06,0,0,1-7.23-2.3A32.06,32.06,0,0,0,65.84,38.76C65.87,38.53,65.9,38.29,65.92,38.05Z" style="fill:#6e872a"/><path d="M50.88,7.54h0a31.44,31.44,0,0,0-7.23-3.31c-1-.32-2.12-.6-3.21-.83a32,32,0,0,0,1,7h0A32,32,0,0,0,54.41,29c.11-.62.2-1.23.28-1.87A31.91,31.91,0,0,0,50.88,7.54Z" style="fill:#6e872a"/></g><g id="fe997847-3ca6-470d-8a91-47027a21edf6" data-name="down-group"><path d="M8,80.07a8.14,8.14,0,1,1,8.24-8A8.14,8.14,0,0,1,8,80.07Z" style="fill:#6e872a"/><path d="M49.94,77.07a35.6,35.6,0,0,0-8.4-3c-1-.21-2-.38-3-.51a34.59,34.59,0,0,0,0-3.81c1.2-.11,2.41-.28,3.62-.51a35,35,0,0,0,7.71-2.41,32.05,32.05,0,0,1,.41,5.57A33.62,33.62,0,0,1,49.94,77.07Z" style="fill:#6e872a"/><path d="M41.06,49.51A31.93,31.93,0,0,0,18.71,40,35.27,35.27,0,0,1,33.33,53.1,31.34,31.34,0,0,0,41.06,49.51Z" style="fill:#6e872a"/><path d="M8,80.07a8.14,8.14,0,1,1,8.24-8A8.14,8.14,0,0,1,8,80.07Z" style="fill:#5a7028"/><path d="M17.87,104.11h-.8A35.27,35.27,0,0,0,32.88,91a31.73,31.73,0,0,1,7.87,4A31.93,31.93,0,0,1,17.87,104.11Z" style="fill:#6e872a"/></g><path d="M40.75,94.9a31.73,31.73,0,0,0-7.87-4A35.27,35.27,0,0,1,17.07,104.1h.8A31.93,31.93,0,0,0,40.75,94.9Z" style="fill:#6e872a"/><g id="feeb85dd-97cf-4123-803a-8af7611945d4" data-name="down-group"><path d="M2.18,103.92A34,34,0,0,1,3,100.27,31.33,31.33,0,0,1,5.6,94.1a32,32,0,0,1,21.28-4.56c.71.1,1.41.22,2.11.36A32,32,0,0,1,10,103h0A31.39,31.39,0,0,1,2.18,103.92Z" style="fill:#6e872a"/></g><path d="M41.06,49.51A31.93,31.93,0,0,0,18.71,40,35.27,35.27,0,0,1,33.33,53.1,31.34,31.34,0,0,0,41.06,49.51Z" style="fill:#6e872a"/><g id="aec83800-4172-4dd5-ae47-16f276b1c7ad" data-name="down-group"><path d="M7.8,50.32h0a31.86,31.86,0,0,1-3.22-7.27c-.31-1-.58-2.13-.79-3.22a31.36,31.36,0,0,1,7,1.05h0A32,32,0,0,1,29.18,54.11c-.62.11-1.24.19-1.87.26A31.89,31.89,0,0,1,7.8,50.32Z" style="fill:#6e872a"/></g><g id="a2354e53-f83b-46fb-92d2-cf0d1483cb8d" data-name="down-group"><path d="M94.06,77.07a35.6,35.6,0,0,1,8.4-3c1-.21,2-.38,3-.51a34.59,34.59,0,0,1,0-3.81c-1.2-.11-2.41-.28-3.62-.51a35,35,0,0,1-7.71-2.41,32.05,32.05,0,0,0-.41,5.57A33.62,33.62,0,0,0,94.06,77.07Z" style="fill:#6e872a"/><path d="M110.67,53.1A35.27,35.27,0,0,1,125.29,40a31.93,31.93,0,0,0-22.35,9.52A31.34,31.34,0,0,0,110.67,53.1Z" style="fill:#6e872a"/><path d="M136,80.07a8.14,8.14,0,1,0-8.24-8A8.14,8.14,0,0,0,136,80.07Z" style="fill:#5a7028"/><path d="M126.13,104.11h.8A35.27,35.27,0,0,1,111.12,91a31.73,31.73,0,0,0-7.87,4A31.93,31.93,0,0,0,126.13,104.11Z" style="fill:#6e872a"/></g><path d="M126.13,104.11h.8A35.27,35.27,0,0,1,111.12,91a31.73,31.73,0,0,0-7.87,4A31.93,31.93,0,0,0,126.13,104.11Z" style="fill:#6e872a"/><g id="bddf16bc-4f78-4ea5-8c93-125a181b06ee" data-name="down-group"><path d="M141.82,103.92a34,34,0,0,0-.86-3.65,31.33,31.33,0,0,0-2.56-6.17,32,32,0,0,0-21.28-4.56c-.71.1-1.41.22-2.11.36A32,32,0,0,0,134,103h0A31.39,31.39,0,0,0,141.82,103.92Z" style="fill:#6e872a"/></g><path d="M110.67,53.1A35.27,35.27,0,0,1,125.29,40a31.93,31.93,0,0,0-22.35,9.52A31.34,31.34,0,0,0,110.67,53.1Z" style="fill:#6e872a"/><g id="f19cc1cf-625d-41fe-bb4b-4520874008db" data-name="down-group"><path d="M136.2,50.32h0a31.86,31.86,0,0,0,3.22-7.27c.31-1,.58-2.13.79-3.22a31.36,31.36,0,0,0-7,1.05h0a32,32,0,0,0-18.43,13.23c.62.11,1.24.19,1.87.26A31.89,31.89,0,0,0,136.2,50.32Z" style="fill:#6e872a"/></g><path d="M117.23,35.14a8.14,8.14,0,1,0-8.24-8A8.14,8.14,0,0,0,117.23,35.14Z" style="fill:#5a7028"/><path d="M26.94,35.14a8.14,8.14,0,1,0-8.23-8A8.14,8.14,0,0,0,26.94,35.14Z" style="fill:#5a7028"/><path d="M26.94,124.82a8.14,8.14,0,1,0-8.23-8A8.14,8.14,0,0,0,26.94,124.82Z" style="fill:#5a7028"/><path d="M117.23,124.82a8.14,8.14,0,1,0-8.24-8A8.14,8.14,0,0,0,117.23,124.82Z" style="fill:#5a7028"/><polygon points="89.11 64.55 89.3 79.02 79.19 89.39 64.72 89.58 54.35 79.48 54.17 65 64.27 54.64 78.74 54.45 89.11 64.55" style="fill:#93ad24"/></g><path d="M21.78,159.52,17.66,171H15.45l-3-8.29a4.57,4.57,0,0,1-.24-1.19h0a4.22,4.22,0,0,1-.26,1.18l-3,8.3H6.75l-4.27-11.5h2.1l3,8.68a4.56,4.56,0,0,1,.23,1.18h.06a5.77,5.77,0,0,1,.31-1.18l3.19-8.68h1.87l3,8.75a6.5,6.5,0,0,1,.25,1.1h0a4.92,4.92,0,0,1,.27-1.13l2.89-8.72Z" style="fill:#1d1d1b"/><path d="M30.46,171H24.92V163h5.31v.92h-4v2.58h3.68v.92H26.25v2.71h4.21Z" style="fill:#1d1d1b"/><path d="M41.67,171H40.2l-1.05-2.21H34.86l-1,2.21H32.4L36.32,163h1.42Zm-2.93-3.11-1.56-3.35A3.46,3.46,0,0,1,37,164h0a2.71,2.71,0,0,1-.17.56l-1.54,3.35Z" style="fill:#1d1d1b"/><path d="M49.69,171H44.25V163h1.33v7.13h4.11Z" style="fill:#1d1d1b"/><path d="M57.75,163.89h-3V171H53.44v-7.13h-3V163h7.27Z" style="fill:#1d1d1b"/><path d="M68.3,171H67v-3.63H61.75V171H60.42V163h1.33v3.5H67V163H68.3Z" style="fill:#1d1d1b"/><path d="M91.19,171h-1.9v-5.18H81.84V171H79.93v-11.5h1.91v5h7.45v-5h1.9Z" style="fill:#1d1d1b"/><path d="M101.52,171H96V163h5.31v.92h-4v2.58H101v.92H97.31v2.71h4.21Z" style="fill:#1d1d1b"/><path d="M112.73,171h-1.47l-1.05-2.21h-4.3l-1,2.21h-1.47l3.93-8.05h1.42Zm-2.94-3.11-1.55-3.35a2.66,2.66,0,0,1-.16-.56h0a2.8,2.8,0,0,1-.16.56l-1.55,3.35Z" style="fill:#1d1d1b"/><path d="M120.74,171h-5.43V163h1.33v7.13h4.1Z" style="fill:#1d1d1b"/><path d="M128.8,163.89h-3V171h-1.34v-7.13h-3V163h7.27Z" style="fill:#1d1d1b"/><path d="M139.35,171H138v-3.63h-5.21V171h-1.33V163h1.33v3.5H138V163h1.33Z" style="fill:#1d1d1b"/></svg>