<svg id="bfc6fc09-7898-4202-883d-2b066c713f3e" data-name="Calque 1" xmlns="http://www.w3.org/2000/svg" viewBox="0 0 200.53 238.15"><g id="e45c0619-cae1-420d-b36f-4e36e0d8ef34" data-name="logo"><g id="a8b61d42-b91e-4754-8ecf-4ec32d42ab79" data-name="down-group"><path d="M107.38,130.45a49.23,49.23,0,0,0-4,11.74c-.28,1.38-.5,2.75-.66,4.13a44.92,44.92,0,0,0-5.31.07,49.33,49.33,0,0,0-4.25-15.73,45,45,0,0,1,7.75-.67A45.76,45.76,0,0,1,107.38,130.45Z" transform="translate(0)" style="fill:#6e872a"/><path d="M69.16,143.28a44.46,44.46,0,0,0-12.88,31.28,49.11,49.11,0,0,1,18-20.59A44.12,44.12,0,0,0,69.16,143.28ZM92,152.86a43.92,43.92,0,0,0-11,3.81c.07.31.14.62.2.93a48.8,48.8,0,0,1-1.3,24.61A44.58,44.58,0,0,0,92,152.86Z" transform="translate(0)" style="fill:#6e872a"/><path d="M112.27,188.73a11.34,11.34,0,1,1-11.34-11.33A11.33,11.33,0,0,1,112.27,188.73Z" transform="translate(0)" style="fill:#5a7028"/><path d="M122.59,185.39a44.69,44.69,0,0,1-14.54-32.86,43.84,43.84,0,0,1,12.35,3.89c-.08.39-.17.78-.25,1.18A48.78,48.78,0,0,0,122.59,185.39Z" transform="translate(0)" style="fill:#6e872a"/><path d="M145.58,174.64c0,.38,0,.75,0,1.12A49,49,0,0,0,127,154a44.25,44.25,0,0,1,5.37-11A44.49,44.49,0,0,1,145.58,174.64Z" transform="translate(0)" style="fill:#6e872a"/><path d="M122.59,185.39a44.69,44.69,0,0,1-14.54-32.86,43.84,43.84,0,0,1,12.35,3.89c-.08.39-.17.78-.25,1.18A48.78,48.78,0,0,0,122.59,185.39Z" transform="translate(0)" style="fill:#6e872a"/><path d="M79.85,182.21a48.8,48.8,0,0,0,1.3-24.61c-.06-.31-.13-.62-.2-.93a43.92,43.92,0,0,1,11-3.81A44.58,44.58,0,0,1,79.85,182.21Z" transform="translate(0)" style="fill:#6e872a"/></g><path d="M120.15,157.6c.08-.4.17-.79.25-1.18a43.84,43.84,0,0,0-12.35-3.89,44.69,44.69,0,0,0,14.54,32.86A48.78,48.78,0,0,1,120.15,157.6Zm12.22-14.66A44.25,44.25,0,0,0,127,154a49,49,0,0,1,18.57,21.79c0-.37,0-.74,0-1.12A44.49,44.49,0,0,0,132.37,142.94Z" transform="translate(0)" style="fill:#6e872a"/><g id="eb362272-019c-48db-8322-6d2d862a8b9d" data-name="down-group"><path d="M145.58,196.49a44.89,44.89,0,0,1-5.1-1.13,44,44,0,0,1-8.63-3.46,44.45,44.45,0,0,1-6.71-29.56c.12-1,.28-2,.46-2.94a44.61,44.61,0,0,1,18.61,26.22h0A44.21,44.21,0,0,1,145.58,196.49Z" transform="translate(0)" style="fill:#6e872a"/><path d="M184.82,121.39a48.92,48.92,0,0,0-62.89,29.75,48.42,48.42,0,0,0-13.53-4.26,44.65,44.65,0,0,1,76.42-25.49Z" transform="translate(0)" style="fill:#6e872a"/></g><path d="M69.16,143.28a44.46,44.46,0,0,0-12.88,31.28,49.11,49.11,0,0,1,18-20.59A44.12,44.12,0,0,0,69.16,143.28ZM92,152.86a43.92,43.92,0,0,0-11,3.81c.07.31.14.62.2.93a48.8,48.8,0,0,1-1.3,24.61A44.58,44.58,0,0,0,92,152.86Z" transform="translate(0)" style="fill:#6e872a"/><g id="a61930ad-4fa1-4b58-8630-0388c6c4f5cc" data-name="down-group"><path d="M91.79,147.08a48.49,48.49,0,0,0-12.42,4,49,49,0,0,0-66-28.5,44.63,44.63,0,0,1,78.31,23.46C91.72,146.42,91.76,146.75,91.79,147.08Z" transform="translate(0)" style="fill:#6e872a"/><path d="M70.85,189.57h0a44.27,44.27,0,0,1-10.07,4.61c-1.45.45-3,.84-4.47,1.15a43.72,43.72,0,0,1,1.35-9.7h0a44.61,44.61,0,0,1,18.11-25.88c.16.86.29,1.72.4,2.6A44.45,44.45,0,0,1,70.85,189.57Z" transform="translate(0)" style="fill:#6e872a"/></g><g id="bb742896-67e6-48d6-a8fc-b2facd716d1e" data-name="down-group"><path d="M107.38,69.62a49.23,49.23,0,0,1-4-11.74c-.28-1.38-.5-2.75-.66-4.13a44.92,44.92,0,0,1-5.31-.07,49.33,49.33,0,0,1-4.25,15.73,45,45,0,0,0,7.75.67A45.76,45.76,0,0,0,107.38,69.62Z" transform="translate(0)" style="fill:#6e872a"/><path d="M74.29,46.1a49.11,49.11,0,0,1-18-20.59A44.46,44.46,0,0,0,69.16,56.79,44.12,44.12,0,0,0,74.29,46.1Zm5.56-28.24a48.8,48.8,0,0,1,1.3,24.61c-.06.31-.13.62-.2.93a43.92,43.92,0,0,0,11,3.81A44.58,44.58,0,0,0,79.85,17.86Z" transform="translate(0)" style="fill:#6e872a"/><path d="M112.27,11.34a11.34,11.34,0,1,0-11.34,11.33A11.33,11.33,0,0,0,112.27,11.34Z" transform="translate(0)" style="fill:#5a7028"/><path d="M122.59,14.68a44.69,44.69,0,0,0-14.54,32.86,43.84,43.84,0,0,0,12.35-3.89c-.08-.39-.17-.78-.25-1.18A48.78,48.78,0,0,1,122.59,14.68Z" transform="translate(0)" style="fill:#6e872a"/><path d="M145.58,25.43c0-.38,0-.75,0-1.12A49,49,0,0,1,127,46.1a44.25,44.25,0,0,0,5.37,11A44.49,44.49,0,0,0,145.58,25.43Z" transform="translate(0)" style="fill:#6e872a"/><path d="M122.59,14.68a44.69,44.69,0,0,0-14.54,32.86,43.84,43.84,0,0,0,12.35-3.89c-.08-.39-.17-.78-.25-1.18A48.78,48.78,0,0,1,122.59,14.68Z" transform="translate(0)" style="fill:#6e872a"/><path d="M79.85,17.86a48.8,48.8,0,0,1,1.3,24.61c-.06.31-.13.62-.2.93a43.92,43.92,0,0,0,11,3.81A44.58,44.58,0,0,0,79.85,17.86Z" transform="translate(0)" style="fill:#6e872a"/></g><path d="M122.59,14.68a44.69,44.69,0,0,0-14.54,32.86,43.84,43.84,0,0,0,12.35-3.89c-.08-.39-.17-.78-.25-1.18A48.78,48.78,0,0,1,122.59,14.68Zm23,10.75c0-.38,0-.75,0-1.12A49,49,0,0,1,127,46.1a44.25,44.25,0,0,0,5.37,11A44.49,44.49,0,0,0,145.58,25.43Z" transform="translate(0)" style="fill:#6e872a"/><g id="e5c7eb93-3df6-40eb-a652-d65d26e8df28" data-name="down-group"><path d="M145.58,3.58a44.89,44.89,0,0,0-5.1,1.13,44,44,0,0,0-8.63,3.46,44.45,44.45,0,0,0-6.71,29.56c.12,1,.28,2,.46,2.94a44.61,44.61,0,0,0,18.61-26.22h0A44.21,44.21,0,0,0,145.58,3.58Z" transform="translate(0)" style="fill:#6e872a"/><path d="M184.82,78.68a48.95,48.95,0,0,1-56.74-17.81,48.69,48.69,0,0,1-6.15-11.94,48.42,48.42,0,0,1-13.53,4.26,44.65,44.65,0,0,0,76.42,25.49Z" transform="translate(0)" style="fill:#6e872a"/></g><path d="M74.29,46.1a49.11,49.11,0,0,1-18-20.59A44.46,44.46,0,0,0,69.16,56.79,44.12,44.12,0,0,0,74.29,46.1Zm5.56-28.24a48.8,48.8,0,0,1,1.3,24.61c-.06.31-.13.62-.2.93a43.92,43.92,0,0,0,11,3.81A44.58,44.58,0,0,0,79.85,17.86Z" transform="translate(0)" style="fill:#6e872a"/><g id="e3be9a27-ce5a-46ca-897a-bc0ea7e88e4a" data-name="down-group"><path d="M91.79,53a48.49,48.49,0,0,1-12.42-4.05,49,49,0,0,1-66,28.5A44.63,44.63,0,0,0,91.68,54C91.72,53.65,91.76,53.32,91.79,53Z" transform="translate(0)" style="fill:#6e872a"/><path d="M70.85,10.5h0A44.27,44.27,0,0,0,60.77,5.89c-1.45-.45-3-.84-4.47-1.15a43.72,43.72,0,0,0,1.35,9.7h0A44.61,44.61,0,0,0,75.76,40.33c.16-.86.29-1.72.4-2.6A44.45,44.45,0,0,0,70.85,10.5Z" transform="translate(0)" style="fill:#6e872a"/></g><g id="f45cbb4d-295d-49e7-8f62-046e6ae983df" data-name="down-group"><path d="M11.2,111.5a11.34,11.34,0,1,1,11.47-11.2A11.32,11.32,0,0,1,11.2,111.5Z" transform="translate(0)" style="fill:#6e872a"/><path d="M69.54,107.32a49.4,49.4,0,0,0-11.69-4.12c-1.38-.3-2.75-.53-4.13-.71a42.76,42.76,0,0,0,0-5.31A49.38,49.38,0,0,0,69.5,93.12a45.09,45.09,0,0,1,.58,7.76A47.14,47.14,0,0,1,69.54,107.32Z" transform="translate(0)" style="fill:#6e872a"/><path d="M57.17,69A44.44,44.44,0,0,0,26.05,55.69,49.09,49.09,0,0,1,46.42,74,43.8,43.8,0,0,0,57.17,69Z" transform="translate(0)" style="fill:#6e872a"/><path d="M11.2,111.5a11.34,11.34,0,1,1,11.47-11.2A11.32,11.32,0,0,1,11.2,111.5Z" transform="translate(0)" style="fill:#5a7028"/><path d="M24.89,145l-1.12,0a49.06,49.06,0,0,0,22-18.31,44.42,44.42,0,0,1,11,5.51A44.5,44.5,0,0,1,24.89,145Z" transform="translate(0)" style="fill:#6e872a"/></g><path d="M56.75,132.16a44.42,44.42,0,0,0-11-5.51,49.06,49.06,0,0,1-22,18.31l1.12,0A44.5,44.5,0,0,0,56.75,132.16Z" transform="translate(0)" style="fill:#6e872a"/><g id="b50d965a-1de0-4cfb-afc8-c41e25463de8" data-name="down-group"><path d="M3,144.72a44.86,44.86,0,0,1,1.19-5.09A43.93,43.93,0,0,1,7.8,131a44.46,44.46,0,0,1,29.63-6.35c1,.14,2,.31,2.94.5a44.6,44.6,0,0,1-26.44,18.29h0A44.45,44.45,0,0,1,3,144.72Z" transform="translate(0)" style="fill:#6e872a"/></g><path d="M57.17,69A44.44,44.44,0,0,0,26.05,55.69,49.09,49.09,0,0,1,46.42,74,43.8,43.8,0,0,0,57.17,69Z" transform="translate(0)" style="fill:#6e872a"/><g id="bf7f3468-0b4c-4166-bd28-a68d393f1a54" data-name="down-group"><path d="M10.86,70.08h0A44.76,44.76,0,0,1,5.28,55.46,43.52,43.52,0,0,1,15,56.93h0A44.6,44.6,0,0,1,40.63,75.35c-.86.15-1.72.27-2.6.37A44.52,44.52,0,0,1,10.86,70.08Z" transform="translate(0)" style="fill:#6e872a"/></g><g id="f11debb3-11a4-4143-88d6-a4fdc03e12a4" data-name="down-group"><path d="M131,107.32a49.4,49.4,0,0,1,11.69-4.12c1.38-.3,2.74-.53,4.12-.71a44.81,44.81,0,0,1,0-5.31A49.38,49.38,0,0,1,131,93.12a45.09,45.09,0,0,0-.58,7.76A45.61,45.61,0,0,0,131,107.32Z" transform="translate(0)" style="fill:#6e872a"/><path d="M154.11,74a49,49,0,0,1,20.37-18.26A44.48,44.48,0,0,0,143.35,69,44,44,0,0,0,154.11,74Z" transform="translate(0)" style="fill:#6e872a"/><path d="M189.32,111.5a11.34,11.34,0,1,0-11.46-11.2A11.33,11.33,0,0,0,189.32,111.5Z" transform="translate(0)" style="fill:#5a7028"/><path d="M175.64,145l1.12,0a49,49,0,0,1-22-18.31,44.36,44.36,0,0,0-11,5.51A44.5,44.5,0,0,0,175.64,145Z" transform="translate(0)" style="fill:#6e872a"/></g><path d="M175.64,145l1.12,0a49,49,0,0,1-22-18.31,44.36,44.36,0,0,0-11,5.51A44.5,44.5,0,0,0,175.64,145Z" transform="translate(0)" style="fill:#6e872a"/><g id="b84df74f-e02e-4215-a7a8-9296ecbc5451" data-name="down-group"><path d="M197.49,144.72a44.88,44.88,0,0,0-1.2-5.09,43.9,43.9,0,0,0-3.56-8.59,44.49,44.49,0,0,0-29.64-6.35c-1,.14-2,.31-2.93.5a44.6,44.6,0,0,0,26.44,18.29h0A44.39,44.39,0,0,0,197.49,144.72Z" transform="translate(0)" style="fill:#6e872a"/></g><path d="M154.11,74a49,49,0,0,1,20.37-18.26A44.48,44.48,0,0,0,143.35,69,44,44,0,0,0,154.11,74Z" transform="translate(0)" style="fill:#6e872a"/><g id="eb43d709-b796-4e61-afa5-8e9c6329a0ce" data-name="down-group"><path d="M189.66,70.08h0a44.57,44.57,0,0,0,4.49-10.13c.43-1.45.8-3,1.09-4.48a43.61,43.61,0,0,0-9.68,1.47h0a44.67,44.67,0,0,0-25.66,18.42c.86.15,1.73.27,2.61.37A44.49,44.49,0,0,0,189.66,70.08Z" transform="translate(0)" style="fill:#6e872a"/></g><path d="M163.24,48.94a11.34,11.34,0,1,0-11.47-11.2A11.33,11.33,0,0,0,163.24,48.94Z" transform="translate(0)" style="fill:#5a7028"/><path d="M37.52,48.94a11.34,11.34,0,1,0-11.47-11.2A11.33,11.33,0,0,0,37.52,48.94Z" transform="translate(0)" style="fill:#5a7028"/><path d="M37.52,173.82a11.34,11.34,0,1,0-11.47-11.2A11.32,11.32,0,0,0,37.52,173.82Z" transform="translate(0)" style="fill:#5a7028"/><path d="M163.24,173.82a11.34,11.34,0,1,0-11.47-11.2A11.32,11.32,0,0,0,163.24,173.82Z" transform="translate(0)" style="fill:#5a7028"/><polygon points="124.09 89.89 124.35 110.04 110.28 124.48 90.13 124.74 75.69 110.67 75.43 90.52 89.5 76.08 109.65 75.82 124.09 89.89" style="fill:#93ad24"/></g><path d="M30.34,222.13l-5.75,16H21.51l-4.13-11.54a5.63,5.63,0,0,1-.33-1.65H17a6.35,6.35,0,0,1-.38,1.63l-4.16,11.56H9.4l-5.94-16H6.38l4.18,12.1a6,6,0,0,1,.33,1.65H11a7.59,7.59,0,0,1,.44-1.65l4.43-12.1h2.61l4.24,12.19a8.42,8.42,0,0,1,.34,1.53h0a6.87,6.87,0,0,1,.39-1.57l4-12.15Z" transform="translate(0)" style="fill:#1d1d1b"/><path d="M42.42,238.15H34.7V226.94h7.39v1.29H36.55v3.59h5.14v1.28H36.55v3.77h5.87Z" transform="translate(0)" style="fill:#1d1d1b"/><path d="M58,238.15H56l-1.46-3.07h-6l-1.38,3.07h-2l5.47-11.21h2Zm-4.09-4.34-2.17-4.66a5.2,5.2,0,0,1-.22-.78h0a2.94,2.94,0,0,1-.23.78l-2.15,4.66Z" transform="translate(0)" style="fill:#1d1d1b"/><path d="M69.19,238.15H61.62V226.94h1.85v9.93h5.72Z" transform="translate(0)" style="fill:#1d1d1b"/><path d="M80.41,228.23H76.27v9.92H74.41v-9.92H70.29v-1.29H80.41Z" transform="translate(0)" style="fill:#1d1d1b"/><path d="M95.11,238.15H93.25V233.1H86v5.05H84.14V226.94H86v4.87h7.26v-4.87h1.86Z" transform="translate(0)" style="fill:#1d1d1b"/><path d="M127,238.15h-2.64v-7.22H114v7.22h-2.65v-16H114v7h10.38v-7H127Z" transform="translate(0)" style="fill:#1d1d1b"/><path d="M141.37,238.15h-7.72V226.94H141v1.29H135.5v3.59h5.14v1.28H135.5v3.77h5.87Z" transform="translate(0)" style="fill:#1d1d1b"/><path d="M157,238.15h-2l-1.46-3.07h-6l-1.38,3.07h-2.05l5.47-11.21h2Zm-4.09-4.34-2.17-4.66a4.21,4.21,0,0,1-.22-.78h-.05a2.94,2.94,0,0,1-.23.78l-2.15,4.66Z" transform="translate(0)" style="fill:#1d1d1b"/><path d="M168.14,238.15h-7.57V226.94h1.85v9.93h5.72Z" transform="translate(0)" style="fill:#1d1d1b"/><path d="M179.36,228.23h-4.14v9.92h-1.86v-9.92h-4.12v-1.29h10.12Z" transform="translate(0)" style="fill:#1d1d1b"/><path d="M194.06,238.15H192.2V233.1h-7.26v5.05h-1.85V226.94h1.85v4.87h7.26v-4.87h1.86Z" transform="translate(0)" style="fill:#1d1d1b"/></svg>